<svg id="bg_footer" xmlns="http://www.w3.org/2000/svg" xmlns:xlink="http://www.w3.org/1999/xlink" width="360" height="196" viewBox="0 0 360 196">
  <defs>
    <clipPath id="clip-path">
      <rect id="Box" width="360" height="196" transform="translate(0 585)" fill="none"/>
    </clipPath>
  </defs>
  <g id="bg_cards_and_chips" transform="translate(0 -585)" clip-path="url(#clip-path)">
    <g id="red_chip" transform="translate(16.218 801.74) rotate(-65)">
      <ellipse id="Ellipse_1" data-name="Ellipse 1" cx="78.553" cy="78.553" rx="78.553" ry="78.553" transform="translate(0 0)" fill="#fff" stroke="#d87153" stroke-width="3"/>
      <ellipse id="Ellipse_2" data-name="Ellipse 2" cx="49.163" cy="49.163" rx="49.163" ry="49.163" transform="translate(29.39 29.39)" fill="#d87153"/>
      <path id="Path_3" data-name="Path 3" d="M12.876.009,38.024,15.27a49.462,49.462,0,0,0-6.6,13.868,48.7,48.7,0,0,0-1.681,19.746L.437,51.32A78.755,78.755,0,0,1,12.867,0Z" transform="translate(0.039 35.583)" fill="#d87153" stroke="#d87153" stroke-width="1"/>
      <path id="Path_4" data-name="Path 4" d="M20.034,0,0,21.544A49.072,49.072,0,0,1,10.129,33.093a48.778,48.778,0,0,1,7,18.542L46,45.981a78.254,78.254,0,0,0-11.028-28.6A78.347,78.347,0,0,0,20.034,0Z" transform="translate(110.1 19.486)" fill="#d87153" stroke="#d87153" stroke-width="1"/>
      <path id="Path_5" data-name="Path 5" d="M0,20.106,21.472,0A49.057,49.057,0,0,0,33.057,10.084a48.839,48.839,0,0,0,18.56,6.938L46.071,45.909A78.106,78.106,0,0,1,17.436,34.98,78.161,78.161,0,0,1,0,20.106Z" transform="translate(19.306 109.956)" fill="#d87153" stroke="#d87153" stroke-width="1"/>
      <path id="Path_6" data-name="Path 6" d="M15.135,51.122,0,25.894a49.106,49.106,0,0,0,12.3-9.2A48.835,48.835,0,0,0,22.991,0L50.062,11.5A78.271,78.271,0,0,1,33.345,37.2,78.181,78.181,0,0,1,15.135,51.113Z" transform="translate(101.58 95.63)" fill="#d87153" stroke="#d87153" stroke-width="1"/>
      <path id="Path_7" data-name="Path 7" d="M52.327,1.694,47.24,30.671a49.284,49.284,0,0,0-15.315-1.105,48.706,48.706,0,0,0-19.009,5.608L0,8.749A78.767,78.767,0,0,1,52.336,1.7Z" transform="translate(42.539 0.769)" fill="#d87153" stroke="#d87153" stroke-width="1"/>
      <ellipse id="Ellipse_3" data-name="Ellipse 3" cx="41.928" cy="41.928" rx="41.928" ry="41.928" transform="translate(36.625 36.607)" fill="#fff"/>
      <path id="Path_8" data-name="Path 8" d="M23.449,51.958,0,29.093,17.122,0,40.715,24.132Z" transform="translate(57.09 51.212)" fill="#d87153"/>
      <path id="Path_9" data-name="Path 9" d="M11.585,25.669,0,14.371,8.457,0,20.115,11.927Z" transform="translate(60.613 4.782)" fill="#fff"/>
      <path id="Path_10" data-name="Path 10" d="M0,15,6.058,0l16.51,2.373L15.953,17.688Z" transform="translate(121.703 39.286)" fill="#fff"/>
      <path id="Path_11" data-name="Path 11" d="M24.941,13.113,15.45,0,0,6.273,10.093,19.548Z" transform="translate(6.184 54.052)" fill="#fff"/>
      <path id="Path_12" data-name="Path 12" d="M14.992,0,0,6.085l2.4,16.5,15.3-6.633Z" transform="translate(39.348 122.953)" fill="#fff"/>
      <path id="Path_13" data-name="Path 13" d="M0,0,16.016,2.3l1.636,16.6L1.2,16.133Z" transform="translate(117.155 110.181)" fill="#fff"/>
    </g>
    <g id="Cards" transform="translate(1975.544 -2755.196) rotate(69)">
      <g id="c" transform="translate(2489.12 2843.632) rotate(-42)">
        <rect id="Rectangle_37" data-name="Rectangle 37" width="260.539" height="383.572" rx="26.97" fill="#d9c7b1"/>
        <path id="Path_11506" data-name="Path 11506" d="M107.674,1.177,1.685,0A1.664,1.664,0,0,0,0,1.656c-.008,0,0,330.49,0,330.506a1.671,1.671,0,0,0,1.672,1.673s181.881-1.151,181.89-1.143a.534.534,0,0,0,0-1.067L1.685,330.481l1.681,1.681V1.673L1.685,3.353,107.674,2.177a.5.5,0,0,0,0-1h0Z" transform="translate(22.596 24.877)" fill="#414042"/>
        <g id="Group_107" data-name="Group 107" transform="translate(73.262 131.27)">
          <path id="Path_11507" data-name="Path 11507" d="M0,68.866a28.5,28.5,0,1,0,56.806-3.421h.4a28.506,28.506,0,1,0,28.3-25.087,24.991,24.991,0,0,0-2.639.134,28.5,28.5,0,1,0-51.73,0,24.991,24.991,0,0,0-2.639-.134A28.5,28.5,0,0,0,0,68.866Z" fill="#414042" stroke="#414042" stroke-width="3"/>
          <path id="Path_11508" data-name="Path 11508" d="M23.785,0,31,22.348A25.049,25.049,0,0,0,38.77,33.853l8.783,7.329H0l8.783-7.4a25.364,25.364,0,0,0,7.783-11.565L23.776.008Z" transform="translate(33.223 79.859)" fill="#414042" stroke="#414042" stroke-width="3"/>
        </g>
        <g id="Group_108" data-name="Group 108" transform="translate(212.692 59.647)">
          <path id="Path_11509" data-name="Path 11509" d="M0,19.574a8.1,8.1,0,0,0,16.2,0,7.5,7.5,0,0,0-.059-.975h.118a7.409,7.409,0,0,0-.059.975,8.1,8.1,0,1,0,8.1-8.1,5.5,5.5,0,0,0-.748.042,8.1,8.1,0,1,0-14.708,0,7.437,7.437,0,0,0-.748-.042A8.1,8.1,0,0,0,0,19.574Z" fill="#414042" stroke="#414042" stroke-width="1"/>
          <path id="Path_11510" data-name="Path 11510" d="M6.757.008,7.808,3.261a18.35,18.35,0,0,0,5.707,8.447H0a18.623,18.623,0,0,0,5.715-8.5L6.757,0Z" transform="translate(9.447 22.692)" fill="#414042" stroke="#414042" stroke-width="1"/>
        </g>
        <text id="A" transform="translate(237.679 25.176) rotate(180)" fill="#424142" font-size="32" font-family="Impact"><tspan x="0" y="0">A</tspan></text>
      </g>
      <g id="c-2" data-name="c" transform="translate(2505.55 2771.305) rotate(-30)">
        <rect id="Rectangle_37-2" data-name="Rectangle 37" width="260.539" height="383.572" rx="26.97" fill="#f2e7c9"/>
        <path id="Path_11505" data-name="Path 11505" d="M84.112,22.658V360.905a22.662,22.662,0,0,1-22.667,22.667H5.3C30.937,331.893,46.183,267.162,46.183,196.9,46.183,121.932,28.827,53.242,0,0H61.445A22.66,22.66,0,0,1,84.112,22.658Z" transform="translate(176.427 0)" fill="#d9c7b1" style="mix-blend-mode: normal;isolation: isolate"/>
        <path id="Path_11506-2" data-name="Path 11506" d="M76.422,1.177,182.411,0a1.664,1.664,0,0,1,1.681,1.656c.008,0,0,330.49,0,330.506a1.671,1.671,0,0,1-1.672,1.672S.538,332.683.53,332.692a.534.534,0,0,1,0-1.067l181.881-1.143-1.681,1.681V1.673l1.681,1.681L76.422,2.177a.5.5,0,0,1,0-1h0Z" transform="translate(53.847 24.877)" fill="#414042"/>
        <g id="Group_107-2" data-name="Group 107" transform="translate(73.262 131.27)">
          <path id="Path_11507-2" data-name="Path 11507" d="M114.015,68.866a28.5,28.5,0,1,1-56.806-3.421h-.4a28.506,28.506,0,1,1-28.3-25.087,24.991,24.991,0,0,1,2.639.134,28.5,28.5,0,1,1,51.73,0,24.991,24.991,0,0,1,2.639-.134,28.5,28.5,0,0,1,28.5,28.508Z" fill="#414042" stroke="#414042" stroke-width="3"/>
          <path id="Path_11508-2" data-name="Path 11508" d="M23.768,0,16.548,22.348A25.049,25.049,0,0,1,8.783,33.853L0,41.182H47.553l-8.783-7.4a25.364,25.364,0,0,1-7.783-11.565L23.776.008Z" transform="translate(33.24 79.859)" fill="#414042" stroke="#414042" stroke-width="3"/>
        </g>
        <g id="Group_108-2" data-name="Group 108" transform="translate(15.439 59.647)">
          <path id="Path_11509-2" data-name="Path 11509" d="M32.408,19.574a8.1,8.1,0,0,1-16.2,0,7.5,7.5,0,0,1,.059-.975h-.118a7.41,7.41,0,0,1,.059.975,8.1,8.1,0,1,1-8.1-8.1,5.5,5.5,0,0,1,.748.042,8.1,8.1,0,1,1,14.708,0,7.436,7.436,0,0,1,.748-.042A8.1,8.1,0,0,1,32.408,19.574Z" fill="#414042" stroke="#414042" stroke-width="1"/>
          <path id="Path_11510-2" data-name="Path 11510" d="M6.757.008,5.707,3.261A18.35,18.35,0,0,1,0,11.707H13.514A18.623,18.623,0,0,1,7.8,3.211L6.757,0Z" transform="translate(9.447 22.692)" fill="#414042" stroke="#414042" stroke-width="1"/>
        </g>
        <text id="A-2" data-name="A" transform="translate(22.86 48.834)" fill="#424142" font-size="32" font-family="Impact"><tspan x="0" y="0">A</tspan></text>
      </g>
    </g>
    <g id="black_chip" transform="translate(-88.755 753.965) rotate(-65)">
      <ellipse id="Ellipse_4" data-name="Ellipse 4" cx="93.216" cy="93.216" rx="93.216" ry="93.216" transform="translate(0 0)" fill="#fff" stroke="#282828" stroke-width="3"/>
      <ellipse id="Ellipse_5" data-name="Ellipse 5" cx="58.34" cy="58.34" rx="58.34" ry="58.34" transform="translate(34.876 34.876)" fill="#282828"/>
      <path id="Path_14" data-name="Path 14" d="M45.595,0,60.729,31.452A58.512,58.512,0,0,0,30.738,59.545L0,43A93.437,93.437,0,0,1,45.584.011Z" transform="translate(10.143 8.01)" fill="#282828" stroke="#282828" stroke-width="1"/>
      <path id="Path_15" data-name="Path 15" d="M36.295,0,2.432,8.468A58.342,58.342,0,0,1,5.034,26.5,57.927,57.927,0,0,1,0,49.477L32.37,62.542a92.809,92.809,0,0,0,7.541-35.58A92.94,92.94,0,0,0,36.305.011Z" transform="translate(146.448 67.854)" fill="#282828" stroke="#282828" stroke-width="1"/>
      <path id="Path_16" data-name="Path 16" d="M0,6.1,34.375,0a58.354,58.354,0,0,0,4.991,17.523,57.784,57.784,0,0,0,13.972,18.91L29.128,61.572a92.891,92.891,0,0,1-21.416-29.4A92.869,92.869,0,0,1,0,6.09Z" transform="translate(0.949 100.01)" fill="#282828" stroke="#282828" stroke-width="1"/>
      <path id="Path_17" data-name="Path 17" d="M.011,45.755,1.28,10.868A58.176,58.176,0,0,0,19.465,9.674,57.983,57.983,0,0,0,40.9,0L60.377,28.967a92.893,92.893,0,0,1-33.255,14.74A92.77,92.77,0,0,1,0,45.755Z" transform="translate(87.019 139.984)" fill="#282828" stroke="#282828" stroke-width="1"/>
      <path id="Path_18" data-name="Path 18" d="M60.868,26.866,37.052,52.389A58.408,58.408,0,0,0,22.536,41.371,57.9,57.9,0,0,0,0,34.642L4.256,0a92.974,92.974,0,0,1,34.78,10.644A93.073,93.073,0,0,1,60.868,26.856Z" transform="translate(97.813 1.227)" fill="#282828" stroke="#282828" stroke-width="1"/>
      <ellipse id="Ellipse_6" data-name="Ellipse 6" cx="49.754" cy="49.754" rx="49.754" ry="49.754" transform="translate(43.473 43.441)" fill="#fff"/>
      <g id="Group_2" data-name="Group 2" transform="translate(68.529 66.897)">
        <path id="Path_19" data-name="Path 19" d="M44.579,38.03A12.068,12.068,0,1,1,26.138,23.344c-.341-.128-.693-.277-1.024-.437a9.887,9.887,0,0,1-.981-.544,11.9,11.9,0,0,1-1.227,5.045A12.068,12.068,0,1,1,17.382,11.26a10.966,10.966,0,0,1,.981.544,11.9,11.9,0,0,1,1.227-5.045A12.068,12.068,0,1,1,38.03,21.445c.341.128.693.277,1.024.437A12.07,12.07,0,0,1,44.579,38.03Z" transform="translate(0 0)" fill="#282828" stroke="#282828" stroke-width="3"/>
        <path id="Path_20" data-name="Path 20" d="M16.713,0,13.172,3.669A27.312,27.312,0,0,1,0,11.231H0l18.078,8.863h0A27.733,27.733,0,0,1,16,4.981l.715-4.97Z" transform="translate(4.146 31.588)" fill="#282828" stroke="#282828" stroke-width="3"/>
      </g>
      <g id="Group_3" data-name="Group 3" transform="translate(113.384 14.705)">
        <path id="Path_21" data-name="Path 21" d="M20.937,17.856a5.669,5.669,0,1,1-10.185-4.981,5.5,5.5,0,0,1,1.525-1.909c-.16-.064-.32-.128-.48-.2a3.872,3.872,0,0,1-.459-.256,5.527,5.527,0,0,1-.576,2.368,5.669,5.669,0,1,1-2.6-7.583,3.872,3.872,0,0,1,.459.256,5.527,5.527,0,0,1,.576-2.368A5.669,5.669,0,1,1,19.38,8.161a5.5,5.5,0,0,1-1.525,1.909c.16.064.32.128.48.2a5.655,5.655,0,0,1,2.592,7.583Z" transform="translate(0 0)" fill="#fff" stroke="#fff" stroke-width="1"/>
        <path id="Path_22" data-name="Path 22" d="M7.85,0,6.186,1.728A12.8,12.8,0,0,1,0,5.279H0l8.5,4.16h0a13.09,13.09,0,0,1-.981-7.1L7.85,0Z" transform="translate(1.941 14.827)" fill="#fff" stroke="#fff" stroke-width="1"/>
      </g>
      <g id="Group_4" data-name="Group 4" transform="translate(157.188 87.864)">
        <path id="Path_23" data-name="Path 23" d="M5.213,22.63A5.671,5.671,0,0,1,6.13,11.325a5.544,5.544,0,0,1,2.336.715,4.261,4.261,0,0,1,.021-.523c.021-.171.032-.352.064-.523a5.672,5.672,0,1,1,3.69-4.863,4.123,4.123,0,0,1-.064.523,5.672,5.672,0,1,1,1.5,10.975,5.545,5.545,0,0,1-2.336-.715,4.29,4.29,0,0,1-.021.523A5.667,5.667,0,0,1,5.213,22.63Z" transform="translate(4.588 0)" fill="#fff" stroke="#fff" stroke-width="1"/>
        <path id="Path_24" data-name="Path 24" d="M8.543,5.375,6.335,4.458A12.806,12.806,0,0,1,.768,0h0L0,9.428H0A13.1,13.1,0,0,1,6.25,5.919l2.293-.544Z" transform="translate(0 5.779)" fill="#fff" stroke="#fff" stroke-width="1"/>
      </g>
      <g id="Group_5" data-name="Group 5" transform="translate(31.568 26.342)">
        <path id="Path_25" data-name="Path 25" d="M2.711,19.242a5.67,5.67,0,1,0,6.378-9.055c.139-.107.277-.213.405-.331s.256-.245.373-.373A5.6,5.6,0,0,0,11.094,11.6a5.67,5.67,0,1,0,.363-8.01c-.128.117-.256.245-.373.373A5.6,5.6,0,0,0,9.857,1.847,5.67,5.67,0,1,0,3.479,10.9c-.139.107-.277.213-.405.331a5.657,5.657,0,0,0-.352,8.01Z" transform="translate(0 0)" fill="#fff" stroke="#fff" stroke-width="1"/>
        <path id="Path_26" data-name="Path 26" d="M.011.011l2.08,1.184A12.729,12.729,0,0,0,9.023,2.858h0L2.037,9.247h0A13.076,13.076,0,0,0,.981,2.154L0,0Z" transform="translate(12.544 13.195)" fill="#fff" stroke="#fff" stroke-width="1"/>
      </g>
      <g id="Group_6" data-name="Group 6" transform="translate(14.285 117.766)">
        <path id="Path_27" data-name="Path 27" d="M17.6,21.237a5.671,5.671,0,0,0-4.576-10.378,5.724,5.724,0,0,0-1.973,1.44,4.666,4.666,0,0,0-.192-.491c-.075-.16-.149-.32-.235-.469a5.569,5.569,0,0,0,2.389-.48,5.671,5.671,0,1,0-7.476-2.9c.075.16.149.32.235.469a5.569,5.569,0,0,0-2.389.48A5.671,5.671,0,0,0,7.963,19.285a5.724,5.724,0,0,0,1.973-1.44,4.654,4.654,0,0,0,.192.491A5.669,5.669,0,0,0,17.6,21.237Z" transform="translate(0 0)" fill="#fff" stroke="#fff" stroke-width="1"/>
        <path id="Path_28" data-name="Path 28" d="M0,7.626,1.792,6.037A12.844,12.844,0,0,0,5.589,0h0L9.407,8.66h0A12.9,12.9,0,0,0,2.347,7.4L0,7.637Z" transform="translate(15.034 2.348)" fill="#fff" stroke="#fff" stroke-width="1"/>
      </g>
      <g id="Group_7" data-name="Group 7" transform="translate(102.688 152.303)">
        <path id="Path_29" data-name="Path 29" d="M.17,9.8A5.673,5.673,0,1,1,11.177,7.049a5.575,5.575,0,0,1,.064,2.442c.16-.053.331-.107.5-.149s.341-.075.512-.107a5.555,5.555,0,0,1-1.088-2.186,5.673,5.673,0,1,1,6.879,4.128c-.171.043-.341.075-.512.107a5.552,5.552,0,0,1,1.088,2.186A5.673,5.673,0,1,1,7.614,16.221a5.575,5.575,0,0,1-.064-2.442c-.16.053-.331.107-.5.149A5.662,5.662,0,0,1,.181,9.8Z" transform="translate(0 4.16)" fill="#fff" stroke="#fff" stroke-width="1"/>
        <path id="Path_30" data-name="Path 30" d="M6.58,9.1l.16-2.389A12.934,12.934,0,0,1,9.183,0h0L0,2.293H0a13.058,13.058,0,0,1,5.322,4.8L6.57,9.1Z" transform="translate(4.063 0)" fill="#fff" stroke="#fff" stroke-width="1"/>
      </g>
    </g>
  </g>
</svg>
