<svg id="ic_shake" xmlns="http://www.w3.org/2000/svg" width="35" height="35" viewBox="0 0 35 35">
  <g id="Illustration" transform="matrix(0.995, 0.105, -0.105, 0.995, 4.506, 2.287)">
    <path id="Path_5626" data-name="Path 5626" d="M17.192,26.057s.709,5.105,7.516-.638,1.773-6.878,1.773-6.878.567-2.825-.993-4.568A8.115,8.115,0,0,1,27.37,9.5,5.074,5.074,0,0,0,28.5,5.723c-.168-1.419-.93-2.763-3.332-2.363a6.073,6.073,0,0,0-3.966,2.549,5.959,5.959,0,0,0-1.319,4.124A3.752,3.752,0,0,0,17.9,9.749C18.255,8.615,14.5-2.163,9.109.39s2.836,11.557,2.836,11.557C10.682,10.942,2.231,6.275.388,11.238s3.191,6.381,8.721,7.232c-2.127.284-8.863,1.276-7.019,6.452s10-.709,10-.709,2.482,2.127,5.105,1.843" transform="translate(0 0)" fill="#fff"/>
    <path id="Path_5627" data-name="Path 5627" d="M17.192,26.057s.709,5.105,7.516-.638,1.773-6.878,1.773-6.878.567-2.825-.993-4.568A8.115,8.115,0,0,1,27.37,9.5,5.074,5.074,0,0,0,28.5,5.723c-.168-1.419-.93-2.763-3.332-2.363a6.073,6.073,0,0,0-3.966,2.549,5.959,5.959,0,0,0-1.319,4.124A3.752,3.752,0,0,0,17.9,9.749C18.255,8.615,14.5-2.163,9.109.39s2.836,11.557,2.836,11.557C10.682,10.942,2.231,6.275.388,11.238s3.191,6.381,8.721,7.232c-2.127.284-8.863,1.276-7.019,6.452s10-.709,10-.709S14.568,26.341,17.192,26.057Z" transform="translate(0 0)" fill="none" stroke="#1a1818" stroke-linecap="round" stroke-linejoin="round" stroke-width="1"/>
    <line id="Line_1" data-name="Line 1" x1="3.952" y1="1.368" transform="translate(13.473 19.1)" fill="#fff"/>
    <path id="Path_5628" data-name="Path 5628" d="M4.034,1.73c-.181.088-.37,0-.539-.04l-.509-.128C2.06,1.332,1.125,1.068.213.783.133.747.031.778.005.585A.608.608,0,0,1,.182.074C.321-.061.383.026.468.047.62.1,1.042.27,1.2.332c.649.257,1.292.532,1.93.818l.479.214c.153.077.361.121.449.3a.047.047,0,0,1-.022.065" transform="translate(13.38 18.77)" fill="#1a1818"/>
    <line id="Line_2" data-name="Line 2" x1="2.876" y1="3.036" transform="translate(15.611 15.766)" fill="#fff"/>
    <path id="Path_5629" data-name="Path 5629" d="M3.069,3.261c-.2-.006-.326-.175-.46-.284l-.393-.348C1.5,2,.792,1.332.114.659.06.591-.045.57.021.388A.608.608,0,0,1,.414.016C.6-.04.614.066.68.124c.108.121.407.462.518.59.458.528.9,1.068,1.335,1.615l.327.411c.1.139.264.274.259.475a.047.047,0,0,1-.05.047" transform="translate(15.394 15.564)" fill="#1a1818"/>
    <line id="Line_3" data-name="Line 3" x1="1.184" y1="4.011" transform="translate(19.122 13.76)" fill="#fff"/>
    <path id="Path_5630" data-name="Path 5630" d="M1.491,4.106c-.177-.1-.211-.3-.281-.462l-.192-.488C.667,2.268.338,1.354.04.446.023.361-.061.295.081.162A.608.608,0,0,1,.6.009C.79.043.755.145.788.226c.041.157.152.6.193.76.168.678.318,1.36.456,2.046l.1.514c.026.17.111.364.015.541a.047.047,0,0,1-.065.019" transform="translate(18.782 13.675)" fill="#1a1818"/>
  </g>
  <rect id="Box" width="35" height="35" fill="none"/>
</svg>
