<svg id="illustration_app" xmlns="http://www.w3.org/2000/svg" xmlns:xlink="http://www.w3.org/1999/xlink" width="304" height="129.978" viewBox="0 0 304 129.978">
  <defs>
    <filter id="Rectangle_37" x="190.565" y="5.14" width="70.813" height="76.745" filterUnits="userSpaceOnUse">
      <feOffset dy="5" input="SourceAlpha"/>
      <feGaussianBlur result="blur"/>
      <feFlood/>
      <feComposite operator="in" in2="blur"/>
      <feComposite in="SourceGraphic"/>
    </filter>
    <filter id="Path_11208" x="2.403" y="54.632" width="29.544" height="59.06" filterUnits="userSpaceOnUse">
      <feOffset dy="5" input="SourceAlpha"/>
      <feGaussianBlur result="blur-2"/>
      <feFlood/>
      <feComposite operator="in" in2="blur-2"/>
      <feComposite in="SourceGraphic"/>
    </filter>
    <filter id="Path_11209" x="24.395" y="55.781" width="36.459" height="53.964" filterUnits="userSpaceOnUse">
      <feOffset dy="5" input="SourceAlpha"/>
      <feGaussianBlur result="blur-3"/>
      <feFlood/>
      <feComposite operator="in" in2="blur-3"/>
      <feComposite in="SourceGraphic"/>
    </filter>
    <filter id="Path_11210" x="53.099" y="50.584" width="33.324" height="52.429" filterUnits="userSpaceOnUse">
      <feOffset dy="5" input="SourceAlpha"/>
      <feGaussianBlur result="blur-4"/>
      <feFlood/>
      <feComposite operator="in" in2="blur-4"/>
      <feComposite in="SourceGraphic"/>
    </filter>
    <filter id="Path_11211" x="86.35" y="40.012" width="32.051" height="59.865" filterUnits="userSpaceOnUse">
      <feOffset dy="5" input="SourceAlpha"/>
      <feGaussianBlur result="blur-5"/>
      <feFlood/>
      <feComposite operator="in" in2="blur-5"/>
      <feComposite in="SourceGraphic"/>
    </filter>
    <filter id="Path_11212" x="115.542" y="46.996" width="29.689" height="50.025" filterUnits="userSpaceOnUse">
      <feOffset dy="5" input="SourceAlpha"/>
      <feGaussianBlur result="blur-6"/>
      <feFlood/>
      <feComposite operator="in" in2="blur-6"/>
      <feComposite in="SourceGraphic"/>
    </filter>
    <filter id="Path_11213" x="145.228" y="46.52" width="28.502" height="49.614" filterUnits="userSpaceOnUse">
      <feOffset dy="5" input="SourceAlpha"/>
      <feGaussianBlur result="blur-7"/>
      <feFlood/>
      <feComposite operator="in" in2="blur-7"/>
      <feComposite in="SourceGraphic"/>
    </filter>
    <filter id="Path_11214" x="172.595" y="47.056" width="24.089" height="50.641" filterUnits="userSpaceOnUse">
      <feOffset dy="5" input="SourceAlpha"/>
      <feGaussianBlur result="blur-8"/>
      <feFlood/>
      <feComposite operator="in" in2="blur-8"/>
      <feComposite in="SourceGraphic"/>
    </filter>
    <filter id="Path_11215" x="195.076" y="69.891" width="17.275" height="15.757" filterUnits="userSpaceOnUse">
      <feOffset dy="5" input="SourceAlpha"/>
      <feGaussianBlur result="blur-9"/>
      <feFlood/>
      <feComposite operator="in" in2="blur-9"/>
      <feComposite in="SourceGraphic"/>
    </filter>
    <filter id="Path_11216" x="211.081" y="50.552" width="44.25" height="54.539" filterUnits="userSpaceOnUse">
      <feOffset dy="5" input="SourceAlpha"/>
      <feGaussianBlur result="blur-10"/>
      <feFlood/>
      <feComposite operator="in" in2="blur-10"/>
      <feComposite in="SourceGraphic"/>
    </filter>
    <filter id="Path_11217" x="247.151" y="49.15" width="35.165" height="62.646" filterUnits="userSpaceOnUse">
      <feOffset dy="5" input="SourceAlpha"/>
      <feGaussianBlur result="blur-11"/>
      <feFlood/>
      <feComposite operator="in" in2="blur-11"/>
      <feComposite in="SourceGraphic"/>
    </filter>
    <filter id="Path_11218" x="277.24" y="64.141" width="24.357" height="50.963" filterUnits="userSpaceOnUse">
      <feOffset dy="5" input="SourceAlpha"/>
      <feGaussianBlur result="blur-12"/>
      <feFlood/>
      <feComposite operator="in" in2="blur-12"/>
      <feComposite in="SourceGraphic"/>
    </filter>
    <filter id="Ellipse_4" x="64.653" y="71.702" width="55.276" height="58.276" filterUnits="userSpaceOnUse">
      <feOffset dy="3" input="SourceAlpha"/>
      <feGaussianBlur result="blur-13"/>
      <feFlood/>
      <feComposite operator="in" in2="blur-13"/>
      <feComposite in="SourceGraphic"/>
    </filter>
  </defs>
  <rect id="Box" width="304" height="125" transform="translate(0 1)" fill="none"/>
  <g id="Card" transform="matrix(0.292, 0.956, -0.956, 0.292, 2073.954, -3186.161)">
    <g transform="matrix(0.29, -0.96, 0.96, 0.29, 2440.58, 2914.88)" filter="url(#Rectangle_37)">
      <rect id="Rectangle_37-2" data-name="Rectangle 37" width="39.99" height="58.875" rx="4" transform="matrix(0.73, 0.68, -0.68, 0.73, 231.42, 5.85)" fill="#f2e7c9" stroke="#414042" stroke-width="1"/>
    </g>
    <path id="Path_11506" data-name="Path 11506" d="M11.73.181,28,0a.255.255,0,0,1,.258.254s0,50.727,0,50.73a.257.257,0,0,1-.257.257S.083,51.064.081,51.065a.082.082,0,0,1,0-.164L28,50.726l-.258.258V.257L28,.515,11.73.334a.077.077,0,0,1,0-.154h0Z" transform="translate(2522.896 2694.446) rotate(-30)" fill="#414042"/>
    <g id="Group_107" data-name="Group 107" transform="translate(2533.641 2707.099) rotate(-30)">
      <path id="Path_11507" data-name="Path 11507" d="M17.5,10.57a4.375,4.375,0,1,1-8.719-.525H8.719A4.375,4.375,0,1,1,4.376,6.195a3.836,3.836,0,0,1,.405.021,4.375,4.375,0,1,1,7.94,0,3.836,3.836,0,0,1,.405-.021A4.375,4.375,0,0,1,17.5,10.57Z" transform="translate(0 0)" fill="#414042" stroke="#414042" stroke-width="1"/>
      <path id="Path_11508" data-name="Path 11508" d="M3.648,0,2.54,3.43A3.845,3.845,0,0,1,1.348,5.2L0,6.321H7.3L5.951,5.186A3.893,3.893,0,0,1,4.756,3.411L3.649,0Z" transform="translate(5.102 12.258)" fill="#414042" stroke="#414042" stroke-width="1"/>
    </g>
    <g id="Group_108" data-name="Group 108" transform="translate(2520.459 2702.016) rotate(-30)">
      <path id="Path_11509" data-name="Path 11509" d="M4.974,3A1.244,1.244,0,0,1,2.487,3a1.151,1.151,0,0,1,.009-.15H2.478A1.137,1.137,0,0,1,2.487,3,1.244,1.244,0,1,1,1.244,1.761a.845.845,0,0,1,.115.006,1.244,1.244,0,1,1,2.258,0,1.141,1.141,0,0,1,.115-.006A1.243,1.243,0,0,1,4.974,3Z" transform="translate(0 0)" fill="#414042" stroke="#414042" stroke-width="0.5"/>
      <path id="Path_11510" data-name="Path 11510" d="M1.037,0,.876.5A2.817,2.817,0,0,1,0,1.8H2.074A2.858,2.858,0,0,1,1.2.493L1.037,0Z" transform="translate(1.45 3.483)" fill="#414042" stroke="#414042" stroke-width="0.5"/>
    </g>
    <g id="Group_109" data-name="Group 109" transform="matrix(-0.875, 0.485, -0.485, -0.875, 2567.629, 2719.476)">
      <path id="Path_11509-2" data-name="Path 11509" d="M4.974,3A1.244,1.244,0,0,1,2.487,3a1.151,1.151,0,0,1,.009-.15H2.478A1.137,1.137,0,0,1,2.487,3,1.244,1.244,0,1,1,1.244,1.761a.845.845,0,0,1,.115.006,1.244,1.244,0,1,1,2.258,0,1.141,1.141,0,0,1,.115-.006A1.243,1.243,0,0,1,4.974,3Z" transform="translate(0 0)" fill="#414042" stroke="#414042" stroke-width="0.5"/>
      <path id="Path_11510-2" data-name="Path 11510" d="M1.037,0,.876.5A2.817,2.817,0,0,1,0,1.8H2.074A2.858,2.858,0,0,1,1.2.493L1.037,0Z" transform="translate(1.45 3.483)" fill="#414042" stroke="#414042" stroke-width="0.5"/>
    </g>
    <text id="A" transform="translate(2519.797 2698.844) rotate(-30)" fill="#424142" font-size="4" font-family="Impact"><tspan x="0" y="0">A</tspan></text>
    <text id="A-2" data-name="A" transform="matrix(-0.875, 0.485, -0.485, -0.875, 2567.42, 2722.361)" fill="#424142" font-size="4" font-family="Impact"><tspan x="0" y="0">A</tspan></text>
  </g>
  <g id="Title" transform="translate(-0.737 38.942)">
    <g id="Group_39" data-name="Group 39" transform="translate(4.14 2.07)">
      <g transform="matrix(1, 0, 0, 1, -3.4, -41.01)" filter="url(#Path_11208)">
        <path id="Path_11208-2" data-name="Path 11208" d="M14.47,34.164c-.827,1.4-1.654,2.8-2.464,4.209q-3.938,1.055-7.866,2.18,2.593-4.583,5.289-9.138,4.035-1.087,8.081-2.115,4.357,2.706,8.623,5.487-3.834.918-7.651,1.9-2-1.264-4.011-2.507Zm6.9,3.157Q26.529,57.907,31.684,78.5q-5.46,1.369-10.894,2.862Q15.168,60.895,9.552,40.43q5.9-1.619,11.828-3.1Z" transform="translate(-0.74 26.33)" fill="#efe5c7" stroke="#414042" stroke-linejoin="round" stroke-width="2"/>
      </g>
      <g transform="matrix(1, 0, 0, 1, -3.4, -41.01)" filter="url(#Path_11209)">
        <path id="Path_11209-2" data-name="Path 11209" d="M71.726,31.44Q75.64,52.3,79.559,73.153q-4.832.91-9.654,1.911-4.832-8.851-9.874-17.616,2.078,9.423,4.161,18.84Q59.6,77.3,55.033,78.4,50.064,57.77,45.1,37.137q4.961-1.192,9.944-2.293,5.4,8.593,10.567,17.283-1.941-9.358-3.882-18.712Q66.722,32.377,71.726,31.44Z" transform="translate(-19.7 25.34)" fill="#efe5c7" stroke="#414042" stroke-linejoin="round" stroke-width="2"/>
      </g>
      <g transform="matrix(1, 0, 0, 1, -3.4, -41.01)" filter="url(#Path_11210)">
        <path id="Path_11210-2" data-name="Path 11210" d="M129.884,21.76q-.467,21.439-.446,42.857-8.432,1.144-16.827,2.572Q105.854,46.813,98.56,26.571q6.314-1.16,12.65-2.169c3.313,11.313,5.826,20.934,7.651,28.843q-.974-12.258-1.348-21.826-.169-3.962-.333-7.93,6.346-.934,12.7-1.724Z" transform="translate(-44.46 29.82)" fill="#efe5c7" stroke="#414042" stroke-linejoin="round" stroke-width="2"/>
      </g>
      <g transform="matrix(1, 0, 0, 1, -3.4, -41.01)" filter="url(#Path_11211)">
        <path id="Path_11211-2" data-name="Path 11211" d="M180.7,10.371q5.187,20.867,9.836,41.821-5.7.395-11.393.918l-1.3-7.538c-1.348.123-2.7.258-4.043.392q.048,3.826.1,7.656-5.75.588-11.5,1.315.169-21.415.832-42.851,8.722-1,17.466-1.718ZM171.615,6.4q-1.546,1.877-3.077,3.764-4.027.419-8.048.9,3.254-4.115,6.609-8.183,4.124-.435,8.252-.811,3.85,3.366,7.608,6.781-3.906.306-7.807.66Q173.389,7.949,171.61,6.4Zm5.23,31.71q-1.546-7.1-3.474-17.579c-.419,8.209-.553,14.2-.478,17.96q1.973-.2,3.952-.387Z" transform="translate(-73.14 38.94)" fill="#efe5c7" stroke="#414042" stroke-linejoin="round" stroke-width="2"/>
      </g>
      <g transform="matrix(1, 0, 0, 1, -3.4, -41.01)" filter="url(#Path_11212)">
        <path id="Path_11212-2" data-name="Path 11212" d="M214.86,15.738q4.285-.282,8.575-.489a63.372,63.372,0,0,1,11.635.161,7.908,7.908,0,0,1,5,2.969c1.3,1.627,1.965,4.252,2.019,7.871.048,3.3-.36,5.53-1.208,6.679s-2.55,1.863-5.1,2.158c2.325.478,3.887,1.176,4.7,2.073A6.33,6.33,0,0,1,242,39.642a37.461,37.461,0,0,1,.381,6.277q.081,5.6.166,11.195-5.187.072-10.373.258l-.5-14.094q-.121-3.407-.714-4.2c-.4-.526-1.4-.762-2.991-.693q.4,9.56.811,19.12-5.581.234-11.163.6-1.377-21.181-2.754-42.357Zm12.424,6.6q.2,4.711.4,9.428a5.516,5.516,0,0,0,2.76-.623c.515-.36.746-1.477.677-3.345-.027-.779-.054-1.557-.081-2.33a3.363,3.363,0,0,0-.875-2.62,4.7,4.7,0,0,0-2.878-.515Z" transform="translate(-98.32 32.91)" fill="#efe5c7" stroke="#414042" stroke-linejoin="round" stroke-width="2"/>
      </g>
      <g transform="matrix(1, 0, 0, 1, -3.4, -41.01)" filter="url(#Path_11213)">
        <path id="Path_11213-2" data-name="Path 11213" d="M296.652,14.61q-.169,4.244-.333,8.489-3.544-.137-7.087-.231l-.886,33.939q-5.581-.145-11.173-.166.056-16.977.118-33.949-3.527-.016-7.06.021-.04-4.244-.081-8.494Q283.4,14.089,296.652,14.61Z" transform="translate(-123.92 33.33)" fill="#efe5c7" stroke="#414042" stroke-linejoin="round" stroke-width="2"/>
      </g>
      <g transform="matrix(1, 0, 0, 1, -3.4, -41.01)" filter="url(#Path_11214)">
        <path id="Path_11214-2" data-name="Path 11214" d="M323.015,15.19q10.107.451,20.193,1.278-.346,4.236-.7,8.467c-2.647-.22-5.3-.413-7.952-.6q-.266,4.019-.537,8.032,3.664.25,7.329.542-.33,4.027-.655,8.048-3.608-.29-7.216-.537l-.628,9.31q4.164.282,8.322.628-.354,4.236-.709,8.467-9.664-.813-19.345-1.24.942-21.2,1.89-42.4Z" transform="translate(-147.52 32.87)" fill="#efe5c7" stroke="#414042" stroke-linejoin="round" stroke-width="2"/>
      </g>
      <g transform="matrix(1, 0, 0, 1, -3.4, -41.01)" filter="url(#Path_11215)">
        <path id="Path_11215-2" data-name="Path 11215" d="M378.265,59.213q-.427,3.632-.848,7.264-7.208-.838-14.427-1.471.322-3.64.639-7.286,7.321.644,14.631,1.493Z" transform="translate(-166.91 13.17)" fill="#efe5c7" stroke="#414042" stroke-linejoin="round" stroke-width="2"/>
      </g>
      <g transform="matrix(1, 0, 0, 1, -3.4, -41.01)" filter="url(#Path_11216)">
        <path id="Path_11216-2" data-name="Path 11216" d="M435.05,27.574q-4.051,20.835-8.1,41.665-4.816-.934-9.643-1.777,2.448-14.118,4.9-28.231-4.486,13.764-8.757,27.576-3.431-.572-6.862-1.09.064-14.15-.1-28.317Q404.491,51.26,402.5,65.115q-4.848-.693-9.7-1.289,2.593-21.061,5.181-42.127,7.8.958,15.581,2.148.113,3.89.038,9.138.008,5.46-.016,10.926,2.883-9.576,5.869-19.13,7.812,1.281,15.592,2.8Z" transform="translate(-180.72 29.85)" fill="#efe5c7" stroke="#414042" stroke-linejoin="round" stroke-width="2"/>
      </g>
      <g transform="matrix(1, 0, 0, 1, -3.4, -41.01)" filter="url(#Path_11217)">
        <path id="Path_11217-2" data-name="Path 11217" d="M491.535,31.938q-1.659,21.447-3.86,42.8-5.573-1.442-11.168-2.754.58-3.785,1.144-7.565c-1.326-.311-2.652-.612-3.979-.913q-1.168,3.648-2.33,7.3-5.67-1.264-11.361-2.395,6.942-20.255,14.357-40.387,8.626,1.812,17.2,3.914Zm-3.27-10.3q2.44.572,4.881,1.165a8.486,8.486,0,0,1-3.619,5.031,8.079,8.079,0,0,1-6.293.762,8,8,0,0,1-5.337-3.426,8.617,8.617,0,0,1-1.052-6.083q2.448.515,4.9,1.058-.427,3.584,2.454,4.231c1.938.44,3.3-.467,4.075-2.744ZM479.11,57.092c1.191-4.871,1.23-10.807,2.213-17.846-3,7.651-5.026,13.289-6.142,16.886,1.3.29,2.636.654,3.929.955Z" transform="translate(-211.83 31.06)" fill="#efe5c7" stroke="#414042" stroke-linejoin="round" stroke-width="2"/>
      </g>
      <g transform="matrix(1, 0, 0, 1, -3.4, -41.01)" filter="url(#Path_11218)">
        <path id="Path_11218-2" data-name="Path 11218" d="M538.377,50.43q-5.348,15.093-10.583,30.212-4.107-1.168-8.226-2.26,3.238-15.673,6.363-31.372,6.233,1.635,12.446,3.426Zm-10.26,32.376-2.336,8.167q-4.873-1.393-9.761-2.685,1.087-4.107,2.169-8.215Q523.166,81.386,528.117,82.806Z" transform="translate(-237.78 18.13)" fill="#efe5c7" stroke="#414042" stroke-linejoin="round" stroke-width="2"/>
      </g>
    </g>
    <g id="d" transform="translate(16.043 32.084)">
      <path id="Path_11219" data-name="Path 11219" d="M40.184,99.652l-7.925,1.82L26.31,79.615l7.839-2.175Z" transform="translate(-26.31 -66.986)" fill="#d87153" style="mix-blend-mode: normal;isolation: isolate"/>
      <rect id="Rectangle_22" data-name="Rectangle 22" width="5.928" height="22.653" transform="translate(16.264 8.766) rotate(-13.04)" fill="#d87153" style="mix-blend-mode: normal;isolation: isolate"/>
      <path id="Path_11220" data-name="Path 11220" d="M84,89.432l6.652-1.375L86.365,65.936,80.1,66.9,79.859,71l-3.5-2.991-4.052.975Z" transform="translate(-48.077 -62.156)" fill="#d87153"/>
      <path id="Path_11221" data-name="Path 11221" d="M115.35,65.239l7.114-1.863,2.685,9.713,3.071-.4-.7-9.648,7.673-.333.344,19.222-13.74,2.132Z" transform="translate(-67.543 -60.165)" fill="#d87153"/>
      <path id="Path_11222" data-name="Path 11222" d="M167.26,61.487h6.953l.285,5.369,7.3-.5-.875-5.283,6.787-1,3.855,17.359-8,1-1.283-7.716-6.8.725.016,7.49-8.236,1Z" transform="translate(-91.581 -58.942)" fill="#d87153"/>
      <path id="Path_11223" data-name="Path 11223" d="M470.826,73.912l6.55,2.33-1.912,6.42,7.044,1.976,1.073-7.057,6.728,1.326-2.3,19.428L480.136,96.6l1.369-7.7-6.647-1.595-2.491,7.066-8.1-1.815Z" transform="translate(-229.122 -65.841)" fill="#d87153"/>
      <path id="Path_11224" data-name="Path 11224" d="M221.16,60.07h8.209l.773,16.639-7.86.322Z" transform="translate(-116.542 -58.942)" fill="#d87153"/>
      <path id="Path_11225" data-name="Path 11225" d="M249.125,59.758l.832,16.22h6.432v-14.8s-1.074-2.744-7.27-1.417Z" transform="translate(-129.489 -58.63)" fill="#d87153"/>
      <path id="Path_11226" data-name="Path 11226" d="M286.842,58.08l-.462,16.993,7.753.322V58.08Z" transform="translate(-146.744 -58.021)" fill="#d87153"/>
      <path id="Path_11227" data-name="Path 11227" d="M325.518,57.97l7.732.768-.821,12.822,8.43.617-.51,4.483-15.388-.913Z" transform="translate(-164.61 -57.97)" fill="#d87153"/>
      <path id="Path_11228" data-name="Path 11228" d="M366.353,64.8l-.263,2.132,11.463,1.144.209-1.928Z" transform="translate(-183.656 -61.133)" fill="#d87153"/>
      <path id="Path_11229" data-name="Path 11229" d="M398.666,64.006,396.51,83.267l6.25.956,2.789-19.39Z" transform="translate(-197.743 -62.054)" fill="#d87153"/>
      <path id="Path_11230" data-name="Path 11230" d="M445.338,70.889,441.93,90.361l6.314,1.283,3.977-19.462Z" transform="translate(-218.776 -65.384)" fill="#d87153"/>
      <path id="Path_11231" data-name="Path 11231" d="M421.66,66.368V86.539l4.054.741,6.061-19.8-2.813-1.113-2.6,2.028L425.1,65.938Z" transform="translate(-209.39 -63.323)" fill="#d87153"/>
      <path id="Path_11232" data-name="Path 11232" d="M521.346,112.89l-1.466,4.773,6.4,1.664,1.2-4.693Z" transform="translate(-254.874 -83.402)" fill="#d87153"/>
      <path id="Path_11233" data-name="Path 11233" d="M526.64,95.977l5.09,1.326,2.924-9.407L528.9,86.542Z" transform="translate(-258.004 -71.847)" fill="#d87153"/>
    </g>
  </g>
  <g id="Chip_B" data-name="Chip B" transform="matrix(0.643, -0.766, 0.766, 0.643, 66.766, 101.573)">
    <g transform="matrix(0.64, 0.77, -0.77, 0.64, 34.89, -116.44)" filter="url(#Ellipse_4)">
      <ellipse id="Ellipse_4-2" data-name="Ellipse 4" cx="18.118" cy="18.118" rx="18.118" ry="18.118" transform="matrix(0.64, -0.77, 0.77, 0.64, 66.77, 101.57)" fill="#efe5c7" stroke="#414042" stroke-width="3"/>
    </g>
    <ellipse id="Ellipse_5" data-name="Ellipse 5" cx="11.339" cy="11.339" rx="11.339" ry="11.339" transform="translate(6.779 6.779)" fill="#414042"/>
    <path id="Path_14" data-name="Path 14" d="M8.862,0,11.8,6.113a11.372,11.372,0,0,0-5.829,5.46L0,8.358A18.16,18.16,0,0,1,8.86,0Z" transform="translate(1.971 1.557)" fill="#414042" stroke="#414042" stroke-width="1"/>
    <path id="Path_15" data-name="Path 15" d="M7.054,0,.473,1.646A11.339,11.339,0,0,1,.978,5.151,11.259,11.259,0,0,1,0,9.616l6.291,2.539A18.038,18.038,0,0,0,7.757,5.24,18.064,18.064,0,0,0,7.056,0Z" transform="translate(28.464 13.188)" fill="#414042" stroke="#414042" stroke-width="1"/>
    <path id="Path_16" data-name="Path 16" d="M0,1.186,6.681,0a11.342,11.342,0,0,0,.97,3.406,11.231,11.231,0,0,0,2.716,3.675L5.661,11.967A18.054,18.054,0,0,1,1.5,6.252,18.05,18.05,0,0,1,0,1.184Z" transform="translate(0.184 19.438)" fill="#414042" stroke="#414042" stroke-width="1"/>
    <path id="Path_17" data-name="Path 17" d="M0,8.893.249,2.112A11.307,11.307,0,0,0,3.783,1.88,11.27,11.27,0,0,0,7.95,0l3.785,5.63A18.055,18.055,0,0,1,5.272,8.495,18.031,18.031,0,0,1,0,8.893Z" transform="translate(16.913 27.207)" fill="#414042" stroke="#414042" stroke-width="1"/>
    <path id="Path_18" data-name="Path 18" d="M11.83,5.222,7.2,10.182A11.352,11.352,0,0,0,4.38,8.041,11.253,11.253,0,0,0,0,6.733L.827,0a18.07,18.07,0,0,1,6.76,2.069A18.09,18.09,0,0,1,11.83,5.22Z" transform="translate(19.011 0.238)" fill="#414042" stroke="#414042" stroke-width="1"/>
    <ellipse id="Ellipse_6" data-name="Ellipse 6" cx="9.67" cy="9.67" rx="9.67" ry="9.67" transform="translate(8.449 8.443)" fill="#efe5c7"/>
    <g id="Group_2" data-name="Group 2" transform="translate(13.319 13.002)">
      <path id="Path_19" data-name="Path 19" d="M8.664,7.392A2.346,2.346,0,1,1,5.08,4.537c-.066-.025-.135-.054-.2-.085a1.922,1.922,0,0,1-.191-.106,2.314,2.314,0,0,1-.238.981A2.346,2.346,0,1,1,3.378,2.188a2.131,2.131,0,0,1,.191.106,2.314,2.314,0,0,1,.238-.981A2.346,2.346,0,1,1,7.392,4.168c.066.025.135.054.2.085A2.346,2.346,0,0,1,8.664,7.392Z" transform="translate(0 0)" fill="#414042" stroke="#414042" stroke-width="1"/>
      <path id="Path_20" data-name="Path 20" d="M3.248,0,2.56.713A5.308,5.308,0,0,1,0,2.183H0L3.514,3.905h0a5.39,5.39,0,0,1-.4-2.937L3.248,0Z" transform="translate(0.806 6.139)" fill="#414042" stroke="#414042" stroke-width="1"/>
    </g>
    <g id="Group_3" data-name="Group 3" transform="translate(22.037 2.858)">
      <path id="Path_21" data-name="Path 21" d="M4.069,3.471A1.1,1.1,0,1,1,2.09,2.5a1.069,1.069,0,0,1,.3-.371c-.031-.012-.062-.025-.093-.039a.753.753,0,0,1-.089-.05,1.074,1.074,0,0,1-.112.46,1.1,1.1,0,1,1-.506-1.474.753.753,0,0,1,.089.05,1.074,1.074,0,0,1,.112-.46,1.1,1.1,0,1,1,1.98.968,1.069,1.069,0,0,1-.3.371c.031.012.062.025.093.039a1.1,1.1,0,0,1,.5,1.474Z" transform="translate(0 0)" fill="#efe5c7" stroke="#efe5c7" stroke-width="0.5"/>
      <path id="Path_22" data-name="Path 22" d="M1.526,0,1.2.336a2.487,2.487,0,0,1-1.2.69H0l1.652.808h0A2.544,2.544,0,0,1,1.461.454L1.526,0Z" transform="translate(0.377 2.882)" fill="#efe5c7" stroke="#efe5c7" stroke-width="0.5"/>
    </g>
    <g id="Group_4" data-name="Group 4" transform="translate(30.551 17.077)">
      <path id="Path_23" data-name="Path 23" d="M1.013,4.4a1.1,1.1,0,0,1,.178-2.2,1.078,1.078,0,0,1,.454.139.828.828,0,0,1,0-.1c0-.033.006-.068.012-.1a1.1,1.1,0,1,1,.717-.945.8.8,0,0,1-.012.1,1.1,1.1,0,1,1,.292,2.133,1.078,1.078,0,0,1-.454-.139.834.834,0,0,1,0,.1A1.1,1.1,0,0,1,1.013,4.4Z" transform="translate(0.892 0)" fill="#efe5c7" stroke="#efe5c7" stroke-width="0.5"/>
      <path id="Path_24" data-name="Path 24" d="M1.66,1.045,1.231.866A2.489,2.489,0,0,1,.149,0h0L0,1.832H0A2.547,2.547,0,0,1,1.215,1.15l.446-.106Z" transform="translate(0 1.123)" fill="#efe5c7" stroke="#efe5c7" stroke-width="0.5"/>
    </g>
    <g id="Group_5" data-name="Group 5" transform="translate(6.136 5.12)">
      <path id="Path_25" data-name="Path 25" d="M.527,3.74a1.1,1.1,0,1,0,1.24-1.76c.027-.021.054-.041.079-.064s.05-.048.073-.073a1.088,1.088,0,0,0,.238.41A1.1,1.1,0,1,0,2.227.7C2.2.72,2.177.745,2.154.769a1.087,1.087,0,0,0-.238-.41,1.1,1.1,0,1,0-1.24,1.76C.649,2.14.622,2.16.6,2.183A1.1,1.1,0,0,0,.529,3.74Z" transform="translate(0 0)" fill="#efe5c7" stroke="#efe5c7" stroke-width="0.5"/>
      <path id="Path_26" data-name="Path 26" d="M0,0l.4.23A2.474,2.474,0,0,0,1.754.556h0L.4,1.8h0A2.541,2.541,0,0,0,.191.419L0,0Z" transform="translate(2.438 2.565)" fill="#efe5c7" stroke="#efe5c7" stroke-width="0.5"/>
    </g>
    <g id="Group_6" data-name="Group 6" transform="translate(2.777 22.889)">
      <path id="Path_27" data-name="Path 27" d="M3.422,4.128a1.1,1.1,0,0,0-.889-2.017,1.113,1.113,0,0,0-.383.28.907.907,0,0,0-.037-.1c-.015-.031-.029-.062-.046-.091a1.082,1.082,0,0,0,.464-.093,1.1,1.1,0,1,0-1.453-.564c.015.031.029.062.046.091a1.082,1.082,0,0,0-.464.093,1.1,1.1,0,0,0,.889,2.017,1.113,1.113,0,0,0,.383-.28.9.9,0,0,0,.037.1A1.1,1.1,0,0,0,3.422,4.128Z" transform="translate(0 0)" fill="#efe5c7" stroke="#efe5c7" stroke-width="0.5"/>
      <path id="Path_28" data-name="Path 28" d="M0,1.482l.348-.309A2.5,2.5,0,0,0,1.086,0h0l.742,1.683h0A2.508,2.508,0,0,0,.456,1.439L0,1.484Z" transform="translate(2.922 0.456)" fill="#efe5c7" stroke="#efe5c7" stroke-width="0.5"/>
    </g>
    <g id="Group_7" data-name="Group 7" transform="translate(19.959 29.602)">
      <path id="Path_29" data-name="Path 29" d="M.033,1.9A1.1,1.1,0,1,1,2.172,1.37a1.084,1.084,0,0,1,.012.475c.031-.01.064-.021.1-.029s.066-.015.1-.021A1.08,1.08,0,0,1,2.17,1.37a1.1,1.1,0,1,1,1.337.8c-.033.008-.066.015-.1.021a1.079,1.079,0,0,1,.211.425,1.1,1.1,0,1,1-2.139.535,1.084,1.084,0,0,1-.012-.475c-.031.01-.064.021-.1.029A1.1,1.1,0,0,1,.035,1.9Z" transform="translate(0 0.809)" fill="#efe5c7" stroke="#efe5c7" stroke-width="0.5"/>
      <path id="Path_30" data-name="Path 30" d="M1.279,1.768,1.31,1.3A2.514,2.514,0,0,1,1.785,0h0L0,.446H0a2.538,2.538,0,0,1,1.034.933l.243.39Z" transform="translate(0.79 0)" fill="#efe5c7" stroke="#efe5c7" stroke-width="0.5"/>
    </g>
  </g>
</svg>
